<?xml version="1.0" encoding="utf-8"?>
<!-- Generator: Adobe Illustrator 19.1.0, SVG Export Plug-In . SVG Version: 6.00 Build 0)  -->
<svg version="1.1" id="圖層_1" xmlns="http://www.w3.org/2000/svg" xmlns:xlink="http://www.w3.org/1999/xlink" x="0px" y="0px"
	 viewBox="-300 289 198 24" style="enable-background:new -300 289 198 24;" xml:space="preserve">
<style type="text/css">
	.st0{fill:#009D95;}
	.st1{fill:#FFFFFF;}
</style>
<path class="st0" d="M-114,305.9C-113.9,305.9-113.9,305.9-114,305.9l0.1-4.8h1.7v7.9h-1.7l-3-5.1l0,0v5.1h-1.7v-7.9h1.9L-114,305.9
	z"/>
<path class="st0" d="M-107.4,304c0,0,0.1,0,0.2,0l2.6-2.9h2.1l-2.9,3.1v0.2l3.1,4.6h-1.9c-0.8-1.1-1.6-2.4-2.4-3.5h-0.1l-0.7,0.6
	v2.8h-1.7v-7.8h1.7L-107.4,304L-107.4,304z"/>
<path class="st0" d="M-123.3,301.1h-1.8l-2.7,7.8v0.2h1.8l0.4-1.4c0-0.1,0-0.2,0.1-0.3h2.8l0.5,1.6h1.8l0,0L-123.3,301.1z M-125,306
	c0.3-1,0.6-2,0.9-2.9l0,0c0.3,1,0.6,2,0.9,2.9C-123.3,306.1-124.4,306-125,306z"/>
<path class="st0" d="M-130.9,304.8L-130.9,304.8c0.3-0.2,0.5-0.4,0.7-0.6c0.4-0.5,0.4-1.4,0.1-2c-0.4-0.7-1.1-1-1.8-1.1h-3.9v7.9h4
	c0.4,0,0.8-0.1,1.2-0.3c0.6-0.4,0.9-1,1-1.6C-129.5,306.1-130.1,305.3-130.9,304.8z M-134,302.4c0.9,0.1,2.2-0.2,2.5,0.6
	c0,0.4,0,0.8-0.3,1c-0.1,0.1-0.3,0.2-0.5,0.2h-1.7V302.4z M-131.6,307.3c-0.6,0.6-1.4,0.3-2.4,0.3v-2.1h1.9c0.3,0.1,0.5,0.2,0.7,0.5
	C-131.4,306.5-131.3,307-131.6,307.3z"/>
<path class="st0" d="M-276.7,296.6c1.8,4.6,0.5,9.9-3.1,13.2c-3.1,2.8-7.8,3.9-12,2.5c-4.7-1.6-7.9-5.8-8.2-10.7
	c-0.2-4.7,2.2-8.9,6.3-11.1c3.7-2.1,9.3-1.8,12.8,0.8C-279.1,292.6-277.6,294.5-276.7,296.6z"/>
<path class="st1" d="M-288.5,294.6c0.4-0.1,1-0.4,1.4-0.1c0.3,0.5,1.1,0.6,0.9,1.2c0.4,0.5,0.9,1.1,1.4,1.5c0.1,0,0.2,0,0.2-0.1
	l-0.1-0.1c0.2-0.1,0.6,0.1,0.9-0.1c0.2,0,0.4,0.1,0.5,0.2c0.1,0.2,0.1,0.4,0.3,0.6h0.1c0.1,0.2,0.2,0.4,0.3,0.6
	c0.9,0.3,1.3,1.4,2.1,1.8c1,0.7,2,1.4,3.1,1.9c-0.1,0.1,0.1,0.1,0.2,0.2l0,0c-0.1-0.1-0.3-0.1-0.5-0.1c0.2,0.2,0.5,0.1,0.6,0.4h-0.4
	c0,0.1,0.1,0.1,0.1,0.1c-0.2-0.1-0.4,0.1-0.5-0.2c-0.8-0.3-1.6-0.8-2.3-1.3l0,0c0.6,0.5,1.4,0.9,2,1.3c0.2,0.1,0.5,0.2,0.7,0.4
	c-0.1,0-0.2,0-0.2,0.1l-0.1,0.1v0.1l0.1,0.1c-0.8-0.3-1.8-0.9-2.6-1.5c-0.4-0.2-0.7-0.4-1.1-0.7c-0.1,0-0.1,0-0.1,0.1
	c0.4,0.3,0.9,0.5,1.3,0.8c-0.8-0.4-1.7-0.9-2.3-1.7c-0.3-0.3-0.7-0.8-1.1-0.7c-0.2,0.1-0.4,0.1-0.6,0.2c-0.1,0-0.3-0.2-0.4,0
	c-0.1,0.3-0.5,0-0.6,0.3c-0.2,0.1-0.7,0-0.8,0.3v0.1c-0.5,0.2-1.2,0.1-1.5,0.6c-0.1,0.1-0.3,0-0.4,0.1c0,0,0-0.1-0.1-0.1
	s-0.2,0.1-0.3,0.1c-0.1-0.1,0.1-0.2,0.1-0.2c-0.2-0.1-0.3,0.2-0.5,0.3c0-0.2,0.3-0.2,0.3-0.4c-0.1-0.1-0.2,0.1-0.3,0.1
	c0.1,0,0.1-0.2,0-0.2c0.1-0.2,0.4-0.1,0.5-0.3h-0.2c0.2-0.1,0.4-0.3,0.6-0.5c-0.1,0-0.2-0.2-0.3,0c0,0,0,0,0-0.1
	c-0.1-0.1-0.2,0.1-0.3,0.1c0,0,0-0.1-0.1-0.1h-0.1c0.1-0.1,0.2-0.2,0.3-0.2h-0.1c0.4-0.2,0.7-0.5,1.1-0.6l0.1-0.1
	c-0.1-0.1-0.3-0.1-0.4,0c0.3,0,0-0.4,0.3-0.4c0-0.3,0.3-0.5,0.5-0.6c-0.3-0.3-0.4-0.8-0.8-1c0-0.2-0.2,0-0.3-0.2
	c-0.4,0-1,0.2-1.3-0.2c-0.2-0.1-0.5,0-0.7,0c-0.3-0.1-0.4,0.1-0.5,0.3c-0.2,0.2-0.3,0.4-0.5,0.7c-0.2,0.3-0.5,0.6-0.9,0.8v-0.1
	c-0.2,0.4-0.8,0.2-1.2,0.6v-0.1c-0.1,0-0.2,0-0.2,0.2l0,0c-0.2,0-0.3,0.2-0.4,0.2c-0.4,0.4-1.1,0.4-1.6,0.8l0,0
	c-0.8,0.3-1.2,0.9-1.8,1.5c-0.1,0.2-0.4,0.4-0.6,0.6c0.1,0.2-0.2,0.3-0.3,0.4c0.1-0.2,0.3-0.3,0.3-0.5c-0.2,0.1-0.2,0.3-0.5,0.4
	c-0.1-0.1,0.1-0.2,0-0.3l-0.3,0.2l0.4-0.4c-0.1,0-0.3,0.3-0.5,0.3c0,0.1-0.1,0.1-0.2,0.1l0,0c0.1-0.1,0.3-0.3,0.4-0.4
	c-0.2-0.1-0.4,0.1-0.5,0.1c0,0,0-0.1-0.1-0.1c0.1-0.1,0.2-0.2,0.3-0.3c-0.1,0-0.2,0-0.3,0.1c0-0.1,0.3-0.2,0.2-0.4
	c-0.3,0-0.3,0.3-0.5,0.3c0.3-0.4,0.7-0.6,0.9-1l0,0c0.5-0.6,1.2-0.9,1.8-1.3c0.5-0.3,1.2-0.5,1.5-1c0.2-0.2,0.3-0.3,0.4-0.5
	c0.1,0,0.1,0,0.1-0.1c0.4-0.2,0.8-0.4,1.2-0.4c0.3-0.2,0.6-0.1,0.8-0.4c0.5-0.6,0.7-1.4,1.2-2c0.1-0.2,0.3-0.5,0.6-0.6
	C-290,294.3-289.2,294.4-288.5,294.6z"/>
<g>
	<path class="st0" d="M-180.4,301.3h5.7v1.3h-4.1v1.7h3.8v1.3h-3.8v2.1h4.3v1.3h-5.8L-180.4,301.3L-180.4,301.3z"/>
	<path class="st0" d="M-167.9,306.3c0.1,0.4,0.3,1.5,1.7,1.5c1.1,0,1.5-0.6,1.5-1.1c0-0.6-0.5-0.8-1.9-1.1c-0.8-0.2-2.4-0.6-2.4-2.3
		c0-0.8,0.5-2.1,2.8-2.1c1.5,0,2.9,0.6,2.9,2.3l-1.5,0.1c-0.1-0.4-0.2-1.1-1.4-1.1c-0.5,0-1.3,0.1-1.3,0.8c0,0.5,0.5,0.7,1.7,1
		c1.2,0.3,2.7,0.7,2.7,2.5c0,0.9-0.6,1.7-1.2,2c-0.7,0.3-1.5,0.3-1.8,0.3c-0.8,0-2.9-0.1-3.2-2.6L-167.9,306.3z"/>
	<path class="st0" d="M-158.9,301.3v4.1c0,0.9,0,1.3,0.2,1.6c0.3,0.5,0.9,0.7,1.4,0.7c1.5,0,1.5-0.9,1.5-2.2v-4.2h1.5v4
		c0,1.4-0.1,2.1-0.4,2.7c-0.6,0.9-1.7,1.1-2.5,1.1c-3.1,0-3.1-1.9-3.1-3.7v-4.1C-160.3,301.3-158.9,301.3-158.9,301.3z"/>
	<path class="st0" d="M-151.1,301.3h1.5l3.1,5.1l0,0v-5.1h1.4v7.6h-1.5l-3.1-5l0,0v5h-1.4V301.3z"/>
	<circle class="st0" cx="-171.7" cy="308" r="1"/>
</g>
<rect x="-198.9" y="293.2" class="st0" width="9.1" height="2.5"/>
<path class="st0" d="M-199.8,294.2c-1.2,1.6-2.8,3.2-4.4,4.3l-1.2-2.4c1.3-0.8,2.5-2.1,3.5-3.3
	C-201.2,293.2-200.5,293.7-199.8,294.2z"/>
<polygon class="st0" points="-238.4,305.8 -234.8,305.8 -234.8,295.3 -232.2,295.3 -232.2,309.2 -234.8,309.2 -234.8,308.3 
	-244.7,308.3 -244.8,309.2 -247.4,309.2 -247.4,295.1 -244.8,295.1 -244.8,305.8 -241.1,305.7 -241.1,292.9 -238.4,292.9 "/>
<polygon class="st0" points="-253.5,295.8 -259.4,295.8 -259.4,295.8 -259.4,299.4 -253.9,299.4 -253.9,302 -259.4,302 
	-259.5,306.5 -252.8,306.5 -252.8,309.1 -268.8,309.1 -268.8,306.5 -262.1,306.5 -262.1,302 -267.6,302 -267.6,299.4 -262.1,299.4 
	-262.1,295.7 -268,295.7 -268,293.2 -253.5,293.2 "/>
<path class="st0" d="M-189.1,298.3v2.4h-2.4l-0.1,6.8c-0.1,0.5-0.5,1-1,1.2c-1.1,0.5-2.5,0.3-3.8,0.3l-1-2.5l3,0
	c0.1,0,0.2-0.2,0.3-0.3l0-5.5l-5.7-0.1c0-0.6,0-1.2-0.1-1.8c-0.2,0.4-0.5,0.8-0.8,1.2v9h-2.5c0-2,0-4,0-5.9
	c-0.4,0.3-0.8,0.7-1.2,1.1l-1.1-2.7c1.7-1.2,2.9-3,4-4.6l1.8,1.3L-189.1,298.3z"/>
<g>
	<path class="st0" d="M-211.3,306.1c-0.2,0.1-0.1-0.2-0.3-0.2c0-0.2-0.2-0.2-0.3-0.3c0-0.2-0.2-0.2-0.2-0.4c0.1,0,0-0.2,0.2-0.1
		v-0.1c0.2-0.1,0.4-0.2,0.6-0.4c0-0.1,0.2-0.1,0.2-0.2c0,0,0.1,0,0.1,0v0c0,0,0.1,0,0.1,0v-0.1c0,0,0.1,0,0.1,0v-0.1
		c0,0,0.1,0,0.1,0V304c0-0.1,0.1,0,0.1,0v-0.1c0,0,0.1,0,0.1,0v0c0,0,0.1,0,0.1,0v-0.2c-0.2,0-0.1-0.3-0.3-0.4c-0.1,0,0-0.1-0.1-0.1
		c-0.1-0.1-0.1-0.2-0.2-0.3c0-0.1-0.1-0.2-0.1-0.2c-0.1-0.1-0.1-0.2-0.2-0.3c-0.1-0.2-0.2-0.4-0.4-0.5c0,0-0.1,0.1-0.2,0.1
		c0,0,0,0.1,0,0.1c-0.3,0.1-0.5,0.5-0.8,0.6c-0.1,0.1-0.3,0.2-0.4,0.3c-0.2,0.1-0.2-0.1-0.3-0.2c-0.1-0.3-0.3-0.8,0-1h2.5v-8.5h-7.9
		l-0.1,2.5c-1.1-0.6-2-1.8-2.6-2.8h-2.2c-0.7,1.3-1.8,2.6-3.1,3.7c0.3,0.9,0.6,1.8,0.9,2.7l0.6-0.4c0.1,0.1,0.1,0.4,0.1,0.5l1.3,0
		c0,0.2,0,0.4,0,0.6h-2.5v2.2l2.5,0.1l0,4l-0.4,0.2l-2.1,0.2l0.1,2.5c2.1-0.3,4.2-0.7,6.3-1.1c0.4,0.2,0.2,0.7,0.2,1.1
		c0.2,0.1,0.5,0,0.7,0c0.4,0,0.5-0.2,0.8-0.1c0.1-0.2,0.5,0,0.6-0.2c0.5,0,0.9-0.2,1.4-0.3c0.3-0.1,0.6-0.1,0.8-0.2
		c0.3-0.1,0.7,0,0.9-0.2v-1.6l0.1-0.1c0.1,0.1,0.2,0.2,0.2,0.4c0.1,0,0.2,0.2,0.3,0.3c0.1,0,0,0.2,0.1,0.1c0,0.2,0.3,0.2,0.3,0.4
		c0.2,0,0.2,0.3,0.4,0.4c0.1,0.2,0.2,0.2,0.4,0.4c0,0.2,0.3,0.1,0.3,0.3c0.2,0.1,0.3,0.2,0.5,0.3c0.2,0,0.1,0.1,0.3,0
		c0.1-0.2,0.2-0.3,0.3-0.5c0.1-0.1,0.1-0.2,0.2-0.3c0.1-0.1,0.1-0.1,0.1-0.3c0.1,0,0.1-0.1,0.2-0.2c0.1-0.2,0.2-0.3,0.3-0.5
		c0.1,0,0.1-0.1,0.2-0.2v-0.1C-210.6,306.6-211,306.4-211.3,306.1z M-222.6,295.8c0.4,0.4,0.9,0.8,1.1,1.3l-1.9,0
		C-223.3,296.6-223,296.2-222.6,295.8z M-218.9,306.5h-0.5c0-0.3,0-0.6,0-0.9c-0.1,0-0.1-0.1-0.1-0.2c0.2-0.8,0.3-1.7,0.5-2.5
		c-0.6-0.2-1.2-0.3-1.8-0.4l-0.5,2.5l0,0.1l1.4,0.3c-0.5,0.2-1,0.3-1.6,0.3v-3.6h2.3l0-2.2l-2.3,0v-0.5c0.5-0.1,1.1,0,1.6,0
		c0.1-0.3,0-0.6,0.1-0.9c0.1-0.1,0.2,0.1,0.4,0.1c0.3-0.3,0.4-0.8,0.6-1.1V306.5z M-216.4,295.7l0.1-0.1h2.7c0.1,0.2,0,0.5,0.1,0.8
		l-0.1,0h-2.7C-216.5,296.4-216.3,296-216.4,295.7z M-216.5,306.1v-4.3c0.1-0.1,0.7-0.2,0.6,0.2c0.2,1.3,0.5,2.5,1,3.7
		C-215.4,305.8-215.9,306-216.5,306.1z M-216.3,299.4c-0.1-0.2-0.1-0.6,0-0.8h2.7c0.2,0.2,0.1,0.5,0.1,0.8
		C-214.4,299.5-215.4,299.4-216.3,299.4z"/>
	<path class="st0" d="M-225.9,306.1c0.4-0.1,0.8-0.2,1.2-0.2c0.1-0.1,0.4,0,0.4-0.2c0-1-0.2-2-0.3-2.9c-0.2-0.2-0.5,0-0.8,0
		c-0.3,0.1-0.7,0.2-1,0.2l0.2,3.1l0.1,0C-226,306.2-225.9,306.2-225.9,306.1z"/>
</g>
<path class="st0" d="M-255.5,303.4c0.2,0.3,0.3,0.8,0.2,1.3c-0.1,0.5-0.6,1-1,1.1c-0.6,0.2-1.3,0-1.7-0.5c-0.3-0.3-0.4-0.7-0.3-1.2
	c0-0.6,0.5-1.2,1.1-1.3C-256.7,302.6-255.9,302.8-255.5,303.4z"/>
</svg>
