<?xml version="1.0" encoding="utf-8"?>
<!-- Generator: Adobe Illustrator 19.1.0, SVG Export Plug-In . SVG Version: 6.00 Build 0)  -->
<svg version="1.1" id="圖層_1" xmlns="http://www.w3.org/2000/svg" xmlns:xlink="http://www.w3.org/1999/xlink" x="0px" y="0px"
	 viewBox="-344 289 111 24" style="enable-background:new -344 289 111 24;" xml:space="preserve">
<style type="text/css">
	.st0{fill:#009D95;}
	.st1{fill:#FFFFFF;}
</style>
<path class="st0" d="M-320.7,296.6c1.8,4.6,0.5,9.9-3.1,13.2c-3.1,2.8-7.8,3.9-12,2.5c-4.7-1.6-7.9-5.8-8.2-10.7
	c-0.2-4.7,2.2-8.9,6.3-11.1c3.7-2.1,9.3-1.8,12.8,0.8C-323.1,292.6-321.6,294.5-320.7,296.6z"/>
<path class="st1" d="M-332.5,294.6c0.4-0.1,1-0.4,1.4-0.1c0.3,0.5,1.1,0.6,0.9,1.2c0.4,0.5,0.9,1.1,1.4,1.5c0.1,0,0.2,0,0.2-0.1
	l-0.1-0.1c0.2-0.1,0.6,0.1,0.9-0.1c0.2,0,0.4,0.1,0.5,0.2c0.1,0.2,0.1,0.4,0.3,0.6h0.1c0.1,0.2,0.2,0.4,0.3,0.6
	c0.9,0.3,1.3,1.4,2.1,1.8c1,0.7,2,1.4,3.1,1.9c-0.1,0.1,0.1,0.1,0.2,0.2l0,0c-0.1-0.1-0.3-0.1-0.5-0.1c0.2,0.2,0.5,0.1,0.6,0.4h-0.4
	c0,0.1,0.1,0.1,0.1,0.1c-0.2-0.1-0.4,0.1-0.5-0.2c-0.8-0.3-1.6-0.8-2.3-1.3l0,0c0.6,0.5,1.4,0.9,2,1.3c0.2,0.1,0.5,0.2,0.7,0.4
	c-0.1,0-0.2,0-0.2,0.1l-0.1,0.1v0.1l0.1,0.1c-0.8-0.3-1.8-0.9-2.6-1.5c-0.4-0.2-0.7-0.4-1.1-0.7c-0.1,0-0.1,0-0.1,0.1
	c0.4,0.3,0.9,0.5,1.3,0.8c-0.8-0.4-1.7-0.9-2.3-1.7c-0.3-0.3-0.7-0.8-1.1-0.7c-0.2,0.1-0.4,0.1-0.6,0.2c-0.1,0-0.3-0.2-0.4,0
	c-0.1,0.3-0.5,0-0.6,0.3c-0.2,0.1-0.7,0-0.8,0.3v0.1c-0.5,0.2-1.2,0.1-1.5,0.6c-0.1,0.1-0.3,0-0.4,0.1c0,0,0-0.1-0.1-0.1
	s-0.2,0.1-0.3,0.1c-0.1-0.1,0.1-0.2,0.1-0.2c-0.2-0.1-0.3,0.2-0.5,0.3c0-0.2,0.3-0.2,0.3-0.4c-0.1-0.1-0.2,0.1-0.3,0.1
	c0.1,0,0.1-0.2,0-0.2c0.1-0.2,0.4-0.1,0.5-0.3h-0.2c0.2-0.1,0.4-0.3,0.6-0.5c-0.1,0-0.2-0.2-0.3,0c0,0,0,0,0-0.1
	c-0.1-0.1-0.2,0.1-0.3,0.1c0,0,0-0.1-0.1-0.1h-0.1c0.1-0.1,0.2-0.2,0.3-0.2h-0.1c0.4-0.2,0.7-0.5,1.1-0.6l0.1-0.1
	c-0.1-0.1-0.3-0.1-0.4,0c0.3,0,0-0.4,0.3-0.4c0-0.3,0.3-0.5,0.5-0.6c-0.3-0.3-0.4-0.8-0.8-1c0-0.2-0.2,0-0.3-0.2
	c-0.4,0-1,0.2-1.3-0.2c-0.2-0.1-0.5,0-0.7,0c-0.3-0.1-0.4,0.1-0.5,0.3c-0.2,0.2-0.3,0.4-0.5,0.7c-0.2,0.3-0.5,0.6-0.9,0.8v-0.1
	c-0.2,0.4-0.8,0.2-1.2,0.6v-0.1c-0.1,0-0.2,0-0.2,0.2l0,0c-0.2,0-0.3,0.2-0.4,0.2c-0.4,0.4-1.1,0.4-1.6,0.8l0,0
	c-0.8,0.3-1.2,0.9-1.8,1.5c-0.1,0.2-0.4,0.4-0.6,0.6c0.1,0.2-0.2,0.3-0.3,0.4c0.1-0.2,0.3-0.3,0.3-0.5c-0.2,0.1-0.2,0.3-0.5,0.4
	c-0.1-0.1,0.1-0.2,0-0.3l-0.3,0.2l0.4-0.4c-0.1,0-0.3,0.3-0.5,0.3c0,0.1-0.1,0.1-0.2,0.1l0,0c0.1-0.1,0.3-0.3,0.4-0.4
	c-0.2-0.1-0.4,0.1-0.5,0.1c0,0,0-0.1-0.1-0.1c0.1-0.1,0.2-0.2,0.3-0.3c-0.1,0-0.2,0-0.3,0.1c0-0.1,0.3-0.2,0.2-0.4
	c-0.3,0-0.3,0.3-0.5,0.3c0.3-0.4,0.7-0.6,0.9-1l0,0c0.5-0.6,1.2-0.9,1.8-1.3c0.5-0.3,1.2-0.5,1.5-1c0.2-0.2,0.3-0.3,0.4-0.5
	c0.1,0,0.1,0,0.1-0.1c0.4-0.2,0.8-0.4,1.2-0.4c0.3-0.2,0.6-0.1,0.8-0.4c0.5-0.6,0.7-1.4,1.2-2c0.1-0.2,0.3-0.5,0.6-0.6
	C-334,294.3-333.2,294.4-332.5,294.6z"/>
<rect x="-242.9" y="293.3" class="st0" width="9.1" height="2.5"/>
<path class="st0" d="M-243.8,294.4c-1.2,1.6-2.8,3.2-4.4,4.3l-1.2-2.4c1.3-0.8,2.5-2.1,3.5-3.3
	C-245.2,293.4-244.5,293.9-243.8,294.4z"/>
<polygon class="st0" points="-282.4,305.9 -278.8,305.9 -278.8,295.4 -276.2,295.4 -276.2,309.4 -278.8,309.4 -278.8,308.4 
	-288.7,308.4 -288.8,309.3 -291.4,309.3 -291.4,295.3 -288.8,295.3 -288.8,305.9 -285.1,305.9 -285.1,293 -282.4,293 "/>
<polygon class="st0" points="-297.5,295.9 -303.3,295.9 -303.4,296 -303.4,299.5 -297.9,299.6 -297.9,302.1 -303.4,302.1 
	-303.4,306.6 -296.8,306.7 -296.8,309.2 -312.8,309.2 -312.8,306.7 -306.1,306.7 -306.1,302.2 -311.6,302.1 -311.6,299.6 
	-306.1,299.6 -306.1,295.9 -312,295.8 -312,293.3 -297.5,293.3 "/>
<path class="st0" d="M-233.1,298.4v2.4h-2.4l-0.1,6.8c-0.1,0.5-0.5,1-1,1.2c-1.1,0.5-2.5,0.3-3.8,0.3l-1-2.5l3,0
	c0.1,0,0.2-0.2,0.3-0.3l0-5.5l-5.7-0.1c0-0.6,0-1.2-0.1-1.8c-0.2,0.4-0.5,0.8-0.8,1.2v9h-2.5c0-2,0-4,0-5.9
	c-0.4,0.3-0.8,0.7-1.2,1.1l-1.1-2.7c1.7-1.2,2.9-3,4-4.6l1.8,1.3L-233.1,298.4z"/>
<g>
	<path class="st0" d="M-255.3,306.2c-0.2,0.1-0.1-0.2-0.3-0.2c0-0.2-0.2-0.2-0.3-0.3c0-0.2-0.2-0.2-0.2-0.4c0.1,0,0-0.2,0.2-0.1V305
		c0.2-0.1,0.4-0.2,0.6-0.4c0-0.1,0.2-0.1,0.2-0.2c0,0,0.1,0,0.1,0v0c0,0,0.1,0,0.1,0v-0.1c0,0,0.1,0,0.1,0v-0.1c0,0,0.1,0,0.1,0
		v-0.1c0-0.1,0.1,0,0.1,0V304c0,0,0.1,0,0.1,0v0c0,0,0.1,0,0.1,0v-0.2c-0.2,0-0.1-0.3-0.3-0.4c-0.1,0,0-0.1-0.1-0.1
		c-0.1-0.1-0.1-0.2-0.2-0.3c0-0.1-0.1-0.2-0.1-0.2c-0.1-0.1-0.1-0.2-0.2-0.3c-0.1-0.2-0.2-0.4-0.4-0.5c0,0-0.1,0.1-0.2,0.1
		c0,0,0,0.1,0,0.1c-0.3,0.1-0.5,0.5-0.8,0.6c-0.1,0.1-0.3,0.2-0.4,0.3c-0.2,0.1-0.2-0.1-0.3-0.2c-0.1-0.3-0.3-0.8,0-1h2.5v-8.5h-7.9
		l-0.1,2.5c-1.1-0.6-2-1.8-2.6-2.8h-2.2c-0.7,1.3-1.8,2.6-3.1,3.7c0.3,0.9,0.6,1.8,0.9,2.7l0.6-0.4c0.1,0.1,0.1,0.4,0.1,0.5l1.3,0
		c0,0.2,0,0.4,0,0.6h-2.5v2.2l2.5,0.1l0,4l-0.4,0.2l-2.1,0.2l0.1,2.5c2.1-0.3,4.2-0.7,6.3-1.1c0.4,0.2,0.2,0.7,0.2,1.1
		c0.2,0.1,0.5,0,0.7,0c0.4,0,0.5-0.2,0.8-0.1c0.1-0.2,0.5,0,0.6-0.2c0.5,0,0.9-0.2,1.4-0.3c0.3-0.1,0.6-0.1,0.8-0.2
		c0.3-0.1,0.7,0,0.9-0.2v-1.6l0.1-0.1c0.1,0.1,0.2,0.2,0.2,0.4c0.1,0,0.2,0.2,0.3,0.3c0.1,0,0,0.2,0.1,0.1c0,0.2,0.3,0.2,0.3,0.4
		c0.2,0,0.2,0.3,0.4,0.4c0.1,0.2,0.2,0.2,0.4,0.4c0,0.2,0.3,0.1,0.3,0.3c0.2,0.1,0.3,0.2,0.5,0.3c0.2,0,0.1,0.1,0.3,0
		c0.1-0.2,0.2-0.3,0.3-0.5c0.1-0.1,0.1-0.2,0.2-0.3c0.1-0.1,0.1-0.1,0.1-0.3c0.1,0,0.1-0.1,0.2-0.2c0.1-0.2,0.2-0.3,0.3-0.5
		c0.1,0,0.1-0.1,0.2-0.2V307C-254.6,306.8-255,306.6-255.3,306.2z M-266.6,295.9c0.4,0.4,0.9,0.8,1.1,1.3l-1.9,0
		C-267.2,296.8-266.9,296.3-266.6,295.9z M-262.9,306.6h-0.5c0-0.3,0-0.6,0-0.9c-0.1,0-0.1-0.1-0.1-0.2c0.2-0.8,0.3-1.7,0.5-2.5
		c-0.6-0.2-1.2-0.3-1.8-0.4l-0.5,2.5l0,0.1l1.4,0.3c-0.5,0.2-1,0.3-1.6,0.3v-3.6h2.3l0-2.2l-2.3,0v-0.5c0.5-0.1,1.1,0,1.6,0
		c0.1-0.3,0-0.6,0.1-0.9c0.1-0.1,0.2,0.1,0.4,0.1c0.3-0.3,0.4-0.8,0.6-1.1V306.6z M-260.4,295.9l0.1-0.1h2.7c0.1,0.2,0,0.5,0.1,0.8
		l-0.1,0h-2.7C-260.5,296.5-260.3,296.1-260.4,295.9z M-260.5,306.2v-4.3c0.1-0.1,0.7-0.2,0.6,0.2c0.2,1.3,0.5,2.5,1,3.7
		C-259.4,306-259.9,306.2-260.5,306.2z M-260.3,299.6c-0.1-0.2-0.1-0.6,0-0.8h2.7c0.2,0.2,0.1,0.5,0.1,0.8
		C-258.4,299.6-259.4,299.6-260.3,299.6z"/>
	<path class="st0" d="M-269.9,306.3c0.4-0.1,0.8-0.2,1.2-0.2c0.1-0.1,0.4,0,0.4-0.2c0-1-0.2-2-0.3-2.9c-0.2-0.2-0.5,0-0.8,0
		c-0.3,0.1-0.7,0.2-1,0.2l0.2,3.1l0.1,0C-270,306.3-269.9,306.4-269.9,306.3z"/>
</g>
<path class="st0" d="M-299.5,303.5c0.2,0.3,0.3,0.8,0.2,1.3c-0.1,0.5-0.6,1-1,1.1c-0.6,0.2-1.3,0-1.7-0.5c-0.3-0.3-0.4-0.7-0.3-1.2
	c0-0.6,0.5-1.2,1.1-1.3C-300.6,302.7-299.9,302.9-299.5,303.5z"/>
</svg>
